<?xml version="1.0" encoding="utf-8"?>
<!-- Generator: Adobe Illustrator 16.0.4, SVG Export Plug-In . SVG Version: 6.00 Build 0)  -->
<!DOCTYPE svg PUBLIC "-//W3C//DTD SVG 1.1//EN" "http://www.w3.org/Graphics/SVG/1.1/DTD/svg11.dtd">
<svg version="1.1" id="Capa_1" xmlns="http://www.w3.org/2000/svg" xmlns:xlink="http://www.w3.org/1999/xlink" x="0px" y="0px"
	 width="79.531px" height="79.531px" viewBox="0 0 79.531 79.531" enable-background="new 0 0 79.531 79.531" xml:space="preserve">
<rect x="-32.735" y="-20.734" fill="#646464" width="158" height="146"/>
<g>
	<path fill="#FFFFFF" d="M46.706,46.13c0,0,4.562,4.567,4.573,4.573c1.454,1.465,1.078,4.041-0.301,5.443l-6.363,6.63
		c-2.457,2.451-5.741-0.951-3.355-3.324l4.036-4.039l-3.951-3.921L46.706,46.13L46.706,46.13z M32.52,46.13L32.52,46.13
		c0,0-4.555,4.567-4.555,4.573c-1.467,1.465-1.09,4.041,0.273,5.443l6.391,6.63c2.448,2.451,5.731-0.951,3.359-3.324l-4.03-4.039
		l3.921-3.921L32.52,46.13 M39.772,29.142c3.654,0,6.618-2.957,6.618-6.627c0-3.649-2.964-6.608-6.618-6.608
		c-3.657,0-6.627,2.959-6.627,6.608C33.145,26.182,36.111,29.142,39.772,29.142z M46.942,43.479l0.097-4.514l5.502,5.132
		c0.447,0.426,1.022,0.628,1.598,0.628c0.62,0,1.252-0.249,1.711-0.739c0.883-0.951,0.833-2.43-0.111-3.312
		c0,0-6.307-6.854-7.215-7.652c-1.677-1.488-4.138-2.332-8.13-2.332h-1.252c-3.996,0-6.453,0.844-8.138,2.329
		c-0.903,0.799-7.21,7.655-7.21,7.655c-0.942,0.883-0.998,2.361-0.113,3.312c0.461,0.49,1.088,0.739,1.713,0.739
		c0.575,0,1.149-0.202,1.6-0.628l5.5-5.129l0.096,4.514h14.354L46.942,43.479L46.942,43.479z"/>
</g>
</svg>
