<?xml version="1.0" encoding="utf-8"?>
<!-- Generator: Adobe Illustrator 16.0.4, SVG Export Plug-In . SVG Version: 6.00 Build 0)  -->
<!DOCTYPE svg PUBLIC "-//W3C//DTD SVG 1.1//EN" "http://www.w3.org/Graphics/SVG/1.1/DTD/svg11.dtd">
<svg version="1.1" id="Capa_1" xmlns="http://www.w3.org/2000/svg" xmlns:xlink="http://www.w3.org/1999/xlink" x="0px" y="0px"
	 width="39.055px" height="39.055px" viewBox="0 0 39.055 39.055" enable-background="new 0 0 39.055 39.055" xml:space="preserve">
<rect x="0" y="-0.973" fill="#646464" width="39.055" height="40.027"/>
<g>
	<g>
		<path fill="#FFFFFF" d="M31.11,16.367c-0.115-0.14-0.286-0.221-0.465-0.221h-2.281c-0.562-1.484-1.296-2.939-2.129-3.488
			c-2.883-1.897-10.53-1.897-13.413,0c-0.834,0.549-1.564,2.005-2.13,3.488H8.411c-0.181,0-0.352,0.082-0.465,0.221
			c-0.113,0.139-0.159,0.323-0.122,0.5l0.338,1.637c0.058,0.279,0.304,0.479,0.587,0.479h0.676c-0.652,0.752-0.968,1.7-0.973,2.648
			c-0.004,1.171,0.44,2.229,1.254,2.979c0.009,0.008,0.018,0.014,0.026,0.021v2.29c0,0.496,0.403,0.9,0.9,0.9h2.104
			c0.497,0,0.9-0.404,0.9-0.9V26H25.42v0.92c0,0.496,0.402,0.9,0.899,0.9h2.104c0.495,0,0.899-0.404,0.899-0.9v-2.244
			c0.863-0.791,1.275-1.878,1.281-2.964c0.004-0.979-0.327-1.962-1.018-2.73h0.721c0.285,0,0.531-0.199,0.587-0.479l0.339-1.637
			C31.268,16.69,31.223,16.508,31.11,16.367z M13.81,14.161c2.298-1.512,9.138-1.512,11.435,0c0.445,0.293,1.02,1.477,1.547,2.926
			H12.264C12.789,15.638,13.364,14.455,13.81,14.161z M11.118,21.855c0-0.977,0.793-1.77,1.771-1.77c0.979,0,1.771,0.793,1.771,1.77
			c0,0.979-0.792,1.771-1.771,1.771C11.911,23.627,11.118,22.834,11.118,21.855z M26.19,23.627c-0.978,0-1.771-0.793-1.771-1.771
			c0-0.977,0.794-1.77,1.771-1.77c0.979,0,1.771,0.793,1.771,1.77C27.96,22.834,27.166,23.627,26.19,23.627z"/>
	</g>
</g>
</svg>
