<?xml version="1.0" encoding="utf-8"?>
<!-- Generator: Adobe Illustrator 16.0.4, SVG Export Plug-In . SVG Version: 6.00 Build 0)  -->
<!DOCTYPE svg PUBLIC "-//W3C//DTD SVG 1.1//EN" "http://www.w3.org/Graphics/SVG/1.1/DTD/svg11.dtd">
<svg version="1.1" id="Capa_1" xmlns="http://www.w3.org/2000/svg" xmlns:xlink="http://www.w3.org/1999/xlink" x="0px" y="0px"
	 width="380.719px" height="380.719px" viewBox="0 0 380.719 380.719" enable-background="new 0 0 380.719 380.719"
	 xml:space="preserve">
<rect x="-54.141" y="-46.641" fill="#646464" width="479" height="474"/>
<g>
	<g>
		<path fill="#FFFFFF" d="M226.596,226.505c-9.07,9.425-21.082,15.233-34.299,15.233c-13.562,0-25.877-6.107-35.02-15.973
			c-34.971,11.266-41.175,38.887-41.175,49.309c0,13.238,0,29.502,0,29.502h148.514c0,0,0-8.072,0-21.938
			C264.617,271.699,260.74,239.576,226.596,226.505z"/>
		<path fill="#FFFFFF" d="M153.258,143.296v35.142c0,2.276,1.499,4.162,3.549,4.852c0,0.123-0.021,0.224-0.021,0.338
			c0,18.345,9.68,33.933,23.228,39.941c0.105,0.057,0.22,0.098,0.328,0.154c1.07,0.446,2.162,0.857,3.284,1.191
			c0.23,0.07,0.45,0.146,0.68,0.21c1.028,0.279,2.07,0.495,3.119,0.677c0.293,0.048,0.586,0.117,0.875,0.153
			c1.313,0.173,2.642,0.286,3.997,0.286c1.342,0,2.657-0.105,3.961-0.279c0.278-0.035,0.543-0.105,0.801-0.146
			c1.066-0.174,2.127-0.391,3.158-0.676c0.195-0.057,0.385-0.125,0.572-0.175c1.143-0.335,2.259-0.739,3.346-1.198
			c0.07-0.029,0.139-0.064,0.209-0.098c13.678-5.926,23.465-21.591,23.465-40.04c0-0.052,0-0.101,0-0.15
			c2.51-0.359,4.476-2.43,4.476-5.04V140.62c6.261-3.145,11.531-7.47,14.675-13.385c6.477-12.171,6.979-23.959,1.43-33.196
			c-5.535-9.209-16.342-14.483-29.663-14.483c-9.522,0-18.048,4.175-25.034,9.467c-6.232-6.905-18.275-13.2-31.133-12.865
			c-8.307,0.216-20.081,3.29-29.053,16.741c-4.625,6.915-6.04,14.238-4.217,21.75C132.742,128.845,147.183,139.396,153.258,143.296z
			 M142.128,98.649c5.218-7.822,12.179-11.9,20.674-12.113c9.265-0.216,18.609,4.398,23.1,9.352
			c-7.072,7.159-11.349,14.085-11.712,14.692c-1.478,2.439-0.701,5.622,1.746,7.114c2.45,1.485,5.639,0.715,7.132-1.739
			c0.157-0.258,16.104-26.02,35.65-26.02c9.587,0,17.149,3.44,20.761,9.442c3.598,5.981,2.99,14.141-1.701,22.98
			c-8.596,16.176-45.291,16.833-58.714,15.716c-2.848-0.247-5.368,1.893-5.595,4.748c-0.244,2.858,1.875,5.368,4.733,5.604
			c0.576,0.049,4.489,0.356,10.22,0.356c8.742,0,21.694-0.725,33.476-4.162v28.627h-58.252v-32.873c0-1.893-1.028-3.625-2.677-4.549
			c-0.188-0.09-18.383-10.37-21.597-23.657C138.252,107.544,139.152,103.118,142.128,98.649z"/>
	</g>
</g>
</svg>
