<?xml version="1.0" encoding="utf-8"?>
<!-- Generator: Adobe Illustrator 16.0.4, SVG Export Plug-In . SVG Version: 6.00 Build 0)  -->
<!DOCTYPE svg PUBLIC "-//W3C//DTD SVG 1.1//EN" "http://www.w3.org/Graphics/SVG/1.1/DTD/svg11.dtd">
<svg version="1.1" id="Capa_1" xmlns="http://www.w3.org/2000/svg" xmlns:xlink="http://www.w3.org/1999/xlink" x="0px" y="0px"
	 width="32px" height="32px" viewBox="0 0 32 32" enable-background="new 0 0 32 32" xml:space="preserve">
<rect x="-6.25" fill="#646464" width="43.75" height="35.25"/>
<g>
	<g id="Desktop">
		<g>
			<path fill="#FFFFFF" d="M20.199,24.4H19c-0.662,0-1.2-0.539-1.2-1.201V21.4h-3.6v1.799c0,0.662-0.538,1.201-1.2,1.201h-1.2
				c-0.332,0-0.6,0.269-0.6,0.6c0,0.332,0.268,0.6,0.6,0.6h8.399c0.332,0,0.601-0.268,0.601-0.6
				C20.8,24.669,20.531,24.4,20.199,24.4z M24.55,6.4H7.45C6.87,6.4,6.4,6.904,6.4,7.525v11.549c0,0.621,0.47,1.125,1.05,1.125h17.1
				c0.579,0,1.05-0.504,1.05-1.125V7.525C25.6,6.904,25.129,6.4,24.55,6.4z M24.4,19H7.6V7.6H24.4V19z"/>
		</g>
	</g>
</g>
</svg>
