<?xml version="1.0" encoding="utf-8"?>
<!-- Generator: Adobe Illustrator 16.0.4, SVG Export Plug-In . SVG Version: 6.00 Build 0)  -->
<!DOCTYPE svg PUBLIC "-//W3C//DTD SVG 1.1//EN" "http://www.w3.org/Graphics/SVG/1.1/DTD/svg11.dtd">
<svg version="1.1" id="Capa_1" xmlns="http://www.w3.org/2000/svg" xmlns:xlink="http://www.w3.org/1999/xlink" x="0px" y="0px"
	 width="42.008px" height="42.008px" viewBox="0 0 42.008 42.008" enable-background="new 0 0 42.008 42.008" xml:space="preserve">
<rect x="-7.496" y="-7.496" fill="#646464" width="61" height="59"/>
<g>
	<g>
		<path fill="#FFFFFF" d="M23.384,20.588c0-1.304-1.058-2.358-2.363-2.358h-6.296c-1.304,0-2.355,1.054-2.355,2.358v0.396h11.013
			L23.384,20.588L23.384,20.588z"/>
		<path fill="#FFFFFF" d="M33.274,10.577c-0.301-0.388-0.757-0.606-1.248-0.606h-1.619c-1.027,0-1.951,0.678-2.246,1.663
			l-3.137,10.133h-4.352h-2.548H12.17c-1.131,0-2.031,0.919-2.031,2.05v0.981c0,0.001-0.01,0.003-0.012,0.005
			c-1.04,0.715-1.726,1.914-1.726,3.27c0,2.188,1.778,3.965,3.964,3.965s3.965-1.781,3.965-3.968c0-0.083-0.003-0.159-0.008-0.245
			h1.801h2.547h1.802c-0.006,0.088-0.01,0.162-0.01,0.245c0,2.187,1.779,3.966,3.967,3.966s3.965-1.777,3.965-3.964
			c0-1.356-0.688-2.554-1.727-3.269c-0.002-0.001-0.011-0.002-0.011-0.004v-0.981c0-1.088-0.839-1.965-1.911-2.03l2.346-7.498h2.637
			c0.725,0,1.354-0.491,1.531-1.191l0.296-1.162C33.679,11.46,33.575,10.964,33.274,10.577z M12.365,29.834
			c-0.972,0-1.762-0.791-1.762-1.763s0.79-1.763,1.762-1.763c0.972,0,1.762,0.79,1.762,1.763
			C14.127,29.043,13.336,29.834,12.365,29.834z M28.193,28.072c0,0.971-0.789,1.763-1.763,1.763c-0.971,0-1.762-0.791-1.762-1.763
			c0-0.973,0.79-1.764,1.762-1.764C27.403,26.309,28.193,27.101,28.193,28.072z M31.674,12.637h-2.087l0.156-0.536
			c0.087-0.291,0.36-0.507,0.663-0.507h1.525L31.674,12.637z"/>
	</g>
</g>
</svg>
