<?xml version="1.0" encoding="utf-8"?>
<!-- Generator: Adobe Illustrator 16.0.4, SVG Export Plug-In . SVG Version: 6.00 Build 0)  -->
<!DOCTYPE svg PUBLIC "-//W3C//DTD SVG 1.1//EN" "http://www.w3.org/Graphics/SVG/1.1/DTD/svg11.dtd">
<svg version="1.1" id="Capa_1" xmlns="http://www.w3.org/2000/svg" xmlns:xlink="http://www.w3.org/1999/xlink" x="0px" y="0px"
	 width="96.312px" height="96.312px" viewBox="0 0 96.312 96.312" enable-background="new 0 0 96.312 96.312" xml:space="preserve">
<rect x="-15.344" y="-18.01" fill="#646464" width="136.667" height="139.333"/>
<g>
	<path fill="#FFFFFF" d="M73.938,42.157l-4.915,9.872l-4.928-9.872h-3.435l0.878,1.647c-1.162-1.733-3.453-2.174-5.55-2.174
		c-6.132,0-6.524,3.357-6.524,3.894h3.052c0,0,0.161-1.96,3.263-1.96c2.017,0,3.579,0.923,3.579,2.697v0.631h-3.579
		c-3.965,0-6.37,0.97-7.056,2.932c0.071-0.435,0.11-0.885,0.11-1.353c0-3.769-2.542-6.801-6.834-6.801
		c-4.02,0-5.269,2.169-5.269,2.169v-7.261h-2.947V47.63c-0.043-2.403-1.602-6-7.049-6c-4.076,0-7.473,1.729-7.473,6.946
		c0,4.133,2.285,6.736,7.578,6.736c6.231,0,6.631-4.105,6.631-4.105h-3.019c0,0-0.647,2.211-3.796,2.211
		c-2.564,0-4.408-1.732-4.408-4.16h11.537v3.435c0,0.915-0.065,2.2-0.065,2.2h2.88c0,0,0.103-0.922,0.103-1.766
		c0,0,1.423,2.227,5.292,2.227c3.299,0,5.741-1.856,6.55-4.714c-0.016,0.15-0.025,0.306-0.025,0.464
		c0,2.775,2.319,4.286,5.457,4.286c4.273,0,5.649-2.362,5.649-2.362c0,0.939,0.072,1.865,0.072,1.865h2.712
		c0,0-0.105-1.147-0.105-1.883v-6.344c0-0.849-0.141-1.558-0.388-2.154l5.498,10.322l-2.585,4.898h3.264l8.956-17.575H73.938z
		 M22.314,47.314c0-2.379,2.172-3.736,4.315-3.736c2.441,0,4.104,1.495,4.104,3.736H22.314z M41.275,53.358
		c-2.953,0-4.545-2.305-4.545-4.861c0-2.381,1.429-4.835,4.525-4.835c2.767,0,4.526,2.053,4.526,4.809
		C45.781,51.426,43.749,53.358,41.275,53.358z M59.357,49.629c0,1.098-0.678,3.828-4.666,3.828c-2.186,0-3.121-1.09-3.121-2.354
		c0-2.301,3.154-2.315,7.787-2.315V49.629L59.357,49.629z"/>
</g>
</svg>
