<?xml version="1.0" encoding="utf-8"?>
<!-- Generator: Adobe Illustrator 16.0.4, SVG Export Plug-In . SVG Version: 6.00 Build 0)  -->
<!DOCTYPE svg PUBLIC "-//W3C//DTD SVG 1.1//EN" "http://www.w3.org/Graphics/SVG/1.1/DTD/svg11.dtd">
<svg version="1.1" id="Capa_1" xmlns="http://www.w3.org/2000/svg" xmlns:xlink="http://www.w3.org/1999/xlink" x="0px" y="0px"
	 width="112.447px" height="112.447px" viewBox="0 0 112.447 112.447" enable-background="new 0 0 112.447 112.447"
	 xml:space="preserve">
<rect x="-22.277" y="-14.276" fill="#646464" width="160" height="163"/>
<g>
	<path fill="#FFFFFF" d="M89.538,29.029l-6.16-6.16c-0.561-0.28-1.399-0.28-1.961,0l-2.238,2.24l-1.121-1.12l-0.84,1.4l1.12,1.12
		l-1.12,1.12l-1.401-1.12l-1.118,1.12l1.118,1.12l-2.237,2.239c-0.562,0.561-0.562,1.4,0,1.961l-9.476,9.475
		c-2.971-2.02-6.271-3.036-9.286-3.036c-3.08,0-5.881,1.121-8.12,3.08c-1.12,1.121-2.24,2.8-2.52,4.481
		c-1.12,3.36-4.2,5.6-7.561,5.6c-3.919,0-7.28,1.4-10.079,3.919c-6.44,6.439-5.04,18.2,3.08,26.04c4.76,4.761,10.64,7.28,15.96,7.28
		c3.92,0,7.56-1.4,10.36-3.92c2.52-2.52,3.919-6.16,3.919-10.081c0-3.64,2.24-6.719,5.601-7.56c1.68-0.562,3.08-1.4,4.48-2.52
		c4.268-4.269,4.116-11.549,0.06-17.42l9.461-9.46c0.56,0.561,1.399,0.561,1.96,0l2.24-2.24l1.119,1.121l1.119-1.121l-1.119-1.12
		l1.119-1.12l1.119,0.839l1.121-1.12l-1.121-1.12l2.52-1.959C90.098,30.428,90.098,29.589,89.538,29.029z M66.857,62.628
		c-0.839,0.839-1.68,1.12-2.8,1.68c-5.041,1.4-8.4,6.161-8.68,11.761c0,1.962-0.562,4.761-2.8,7.001c-2.239,2.238-5.32,2.8-7.28,2.8
		c-4.48,0-9.24-2.239-12.88-5.882c-6.439-6.438-7.839-15.398-3.08-20.159c2.239-2.239,5.04-2.8,7-2.8c5.6,0,10.081-3.64,11.76-8.68
		c0.28-1.12,0.84-1.961,1.681-2.8c1.68-1.681,3.639-1.961,5.04-1.961c2.126,0,4.255,0.675,6.24,1.88l-8.004,8.006
		c-0.339-0.05-0.682-0.085-1.036-0.085c-3.865,0-7,3.133-7,7c0,3.867,3.135,7,7,7c3.866,0,7-3.133,7-7
		c0-0.352-0.035-0.695-0.085-1.034l7.979-7.979C69.362,55.492,69.485,60.001,66.857,62.628z M76.657,32.109l5.881-5.88l1.119,1.12
		l-5.879,5.88L76.657,32.109z M80.298,35.749l-1.119-1.12l5.88-5.88l1.12,1.12L80.298,35.749z M37.817,65.772l8.712,8.713
		l-2.574,2.573l-8.711-8.712L37.817,65.772z"/>
</g>
</svg>
