<?xml version="1.0" encoding="utf-8"?>
<!-- Generator: Adobe Illustrator 16.0.4, SVG Export Plug-In . SVG Version: 6.00 Build 0)  -->
<!DOCTYPE svg PUBLIC "-//W3C//DTD SVG 1.1//EN" "http://www.w3.org/Graphics/SVG/1.1/DTD/svg11.dtd">
<svg version="1.1" id="Capa_1" xmlns="http://www.w3.org/2000/svg" xmlns:xlink="http://www.w3.org/1999/xlink" x="0px" y="0px"
	 width="460.297px" height="460.297px" viewBox="0 0 460.297 460.297" enable-background="new 0 0 460.297 460.297"
	 xml:space="preserve">
<rect x="-31.351" y="-12.352" fill="#646464" width="516" height="485"/>
<g>
	<g>
		<path fill="#FFFFFF" d="M230.149,164.623l-98.498,81.201c0,0.114-0.029,0.283-0.086,0.513c-0.056,0.228-0.086,0.394-0.086,0.511
			v82.225c0,2.969,1.085,5.542,3.255,7.709c2.169,2.168,4.739,3.258,7.708,3.258h65.778v-65.781h43.858v65.784h65.777
			c2.969,0,5.541-1.089,7.708-3.261c2.171-2.164,3.259-4.739,3.259-7.709v-82.225c0-0.455-0.062-0.801-0.172-1.023L230.149,164.623z
			"/>
		<path fill="#FFFFFF" d="M366.333,227.322l-37.514-31.177v-69.892c0-1.598-0.513-2.912-1.544-3.94
			c-1.022-1.027-2.337-1.541-3.938-1.541h-32.89c-1.6,0-2.914,0.514-3.942,1.541c-1.026,1.028-1.54,2.343-1.54,3.94v33.403
			l-41.797-34.947c-3.65-2.97-7.99-4.454-13.016-4.454c-5.025,0-9.365,1.484-13.019,4.454L93.962,227.322
			c-1.142,0.912-1.768,2.14-1.884,3.682c-0.116,1.541,0.283,2.887,1.198,4.027l10.621,12.678c0.915,1.027,2.112,1.654,3.598,1.885
			c1.371,0.115,2.742-0.285,4.113-1.199l118.541-98.845l118.542,98.845c0.915,0.797,2.112,1.194,3.598,1.194h0.515
			c1.482-0.226,2.678-0.858,3.598-1.882l10.621-12.676c0.914-1.144,1.314-2.487,1.195-4.029
			C368.1,229.464,367.473,228.236,366.333,227.322z"/>
	</g>
</g>
</svg>
