<?xml version="1.0" encoding="utf-8"?>
<!-- Generator: Adobe Illustrator 16.0.4, SVG Export Plug-In . SVG Version: 6.00 Build 0)  -->
<!DOCTYPE svg PUBLIC "-//W3C//DTD SVG 1.1//EN" "http://www.w3.org/Graphics/SVG/1.1/DTD/svg11.dtd">
<svg version="1.1" id="Capa_1" xmlns="http://www.w3.org/2000/svg" xmlns:xlink="http://www.w3.org/1999/xlink" x="0px" y="0px"
	 width="31.521px" height="31.521px" viewBox="0 0 31.521 31.521" enable-background="new 0 0 31.521 31.521" xml:space="preserve">
<rect x="-14.073" y="-6.74" fill="#646464" width="59" height="45.667"/>
<g>
	<path fill="#FFFFFF" d="M22.469,9.097c-3.68-3.705-9.667-3.726-13.373-0.045c-3.706,3.68-3.726,9.667-0.046,13.373
		c3.681,3.706,9.667,3.727,13.375,0.047C26.13,18.791,26.15,12.803,22.469,9.097z M19.856,8.658L17.85,10.65
		c-1.324-0.542-2.817-0.546-4.146-0.015L11.713,8.63C14.233,7.201,17.346,7.212,19.856,8.658z M10.637,17.817l-2.006,1.99
		c-1.43-2.52-1.418-5.632,0.028-8.143l1.993,2.006C10.109,14.994,10.104,16.488,10.637,17.817z M11.665,22.864l2.006-1.992
		c1.324,0.541,2.818,0.547,4.146,0.014l1.991,2.007C17.288,24.321,14.175,24.31,11.665,22.864z M18.77,18.792
		c-1.672,1.66-4.381,1.65-6.042-0.021c-1.66-1.67-1.65-4.38,0.021-6.04c1.672-1.659,4.38-1.65,6.041,0.021
		C20.451,14.422,20.441,17.132,18.77,18.792z M20.87,17.851c0.541-1.325,0.547-2.818,0.014-4.146l2.006-1.992
		c1.43,2.52,1.419,5.633-0.027,8.144L20.87,17.851z"/>
</g>
</svg>
