<?xml version="1.0" encoding="utf-8"?>
<!-- Generator: Adobe Illustrator 16.0.4, SVG Export Plug-In . SVG Version: 6.00 Build 0)  -->
<!DOCTYPE svg PUBLIC "-//W3C//DTD SVG 1.1//EN" "http://www.w3.org/Graphics/SVG/1.1/DTD/svg11.dtd">
<svg version="1.1" id="Capa_1" xmlns="http://www.w3.org/2000/svg" xmlns:xlink="http://www.w3.org/1999/xlink" x="0px" y="0px"
	 width="122.336px" height="122.336px" viewBox="0 0 122.336 122.336" enable-background="new 0 0 122.336 122.336"
	 xml:space="preserve">
<rect x="-26.332" y="-12.332" fill="#646464" width="175" height="159"/>
<g>
	<g>
		<circle fill="#FFFFFF" cx="61.334" cy="51.363" r="5.436"/>
		<path fill="#FFFFFF" d="M79.45,24.467H42.886c-0.473,0-0.857,0.384-0.857,0.857v19.138c0,0.474,0.384,0.857,0.857,0.857h3.294
			c-0.446,0.68-0.478,1.585-0.006,2.311l9.172,14.073c0.12,0.185,0.265,0.339,0.425,0.471v11.663c0,0.568,0.11,1.097,0.303,1.585
			c-0.015,0.111-0.025,0.223-0.025,0.337l0.02,19.618c0.001,1.377,1.118,2.491,2.495,2.491c0,0,0.001,0,0.003,0
			c1.377-0.002,2.492-1.12,2.49-2.496l-0.015-16.751c0.098,0.006,0.195,0.012,0.294,0.012c0.02,0,0.039,0,0.059,0v16.638
			c0,1.378,1.117,2.494,2.494,2.494c1.378,0,2.492-1.116,2.492-2.493l0.002-19.393c0.326-0.605,0.517-1.289,0.517-2.041V61.839
			c0-0.005-0.001-0.011-0.001-0.016c0.03-0.039,0.062-0.077,0.09-0.12L76.16,47.63c0.473-0.725,0.439-1.63-0.006-2.311h3.295
			c0.473,0,0.856-0.384,0.856-0.857V25.324C80.307,24.851,79.922,24.467,79.45,24.467z M61.346,67.978h-0.021l-1.108-1.515
			l0.858-5.737c0.086-0.23,0.123-0.475,0.108-0.722l0.142-0.946h0.021l1.107,7.406L61.346,67.978z M72.625,45.325l-8.166,12.529
			c-0.551-0.336-1.154-0.589-1.77-0.74l-1.354,1.364l-1.313-1.379c-0.004,0.001-0.009,0.001-0.013,0.003
			c-0.715,0.171-1.416,0.479-2.037,0.9l-8.261-12.676c-0.001-0.002-0.004-0.003-0.004-0.005H72.63
			C72.629,45.321,72.627,45.323,72.625,45.325z M78.592,43.605H43.743V26.181h34.849V43.605z"/>
	</g>
</g>
<rect x="58.001" y="58.834" fill="#FFFFFF" width="7" height="9.5"/>
</svg>
