<?xml version="1.0" encoding="utf-8"?>
<!-- Generator: Adobe Illustrator 16.0.4, SVG Export Plug-In . SVG Version: 6.00 Build 0)  -->
<!DOCTYPE svg PUBLIC "-//W3C//DTD SVG 1.1//EN" "http://www.w3.org/Graphics/SVG/1.1/DTD/svg11.dtd">
<svg version="1.1" id="Capa_1" xmlns="http://www.w3.org/2000/svg" xmlns:xlink="http://www.w3.org/1999/xlink" x="0px" y="0px"
	 width="246.006px" height="246.006px" viewBox="0 0 246.006 246.006" enable-background="new 0 0 246.006 246.006"
	 xml:space="preserve">
<rect x="-13.497" y="-12.497" fill="#646464" width="272" height="275"/>
<g>
	<g>
		<path fill="#FFFFFF" d="M167.428,111.099V56.121c0-2.961-2.409-5.37-5.371-5.37c-2.958,0-5.368,2.409-5.368,5.37v12.617H92.917
			V56.121c0-2.961-2.408-5.37-5.37-5.37c-2.96,0-5.365,2.409-5.365,5.37v64.516l10.548-6.109c0.062-0.037,0.125-0.068,0.187-0.104
			v-6.688h63.771v3.519C160.243,110.584,163.848,110.526,167.428,111.099z M92.917,96.998V79.47h63.771v17.528H92.917z"/>
		<path fill="#FFFFFF" d="M51.969,153.97l19.807,10.975c5.468,3.031,14.146,2.946,19.537-0.186l11.628-6.736
			c1.735-1.007,4.13-1.109,5.083-1.109c0.974,0,2.828,0.103,4.278,0.824l15.373,7.633c5.62,2.793,14.207,2.404,19.518-0.865
			l10.353-6.373c1.7-1.055,4.076-1.17,5.018-1.17c1.118,0,2.73,0.137,4.047,0.798l22.421,11.255c2.623,1.312,5.917,0.18,7.206-2.389
			c1.326-2.647,0.256-5.879-2.389-7.209l-22.415-11.249c-5.622-2.827-14.204-2.455-19.524,0.823l-10.346,6.373
			c-1.719,1.064-4.12,1.18-5.07,1.18c-1.115,0-2.717-0.135-4.034-0.783l-15.383-7.635c-5.535-2.748-14.204-2.475-19.518,0.613
			l-11.628,6.736c-1.531,0.884-3.528,1.016-4.582,1.016c-1,0-2.899-0.121-4.37-0.938l-19.807-10.971
			c-2.521-1.404-5.909-0.405-7.298,2.093C48.439,149.265,49.378,152.538,51.969,153.97z"/>
		<path fill="#FFFFFF" d="M51.969,179.661l19.807,10.975c5.463,3.027,14.146,2.945,19.541-0.184l11.625-6.738
			c1.738-1.004,4.134-1.113,5.082-1.113c0.974,0,2.825,0.107,4.275,0.826l15.376,7.635c5.617,2.797,14.207,2.408,19.517-0.865
			l10.354-6.373c1.7-1.055,4.076-1.17,5.015-1.17c1.121,0,2.73,0.135,4.046,0.795l22.425,11.258
			c2.617,1.311,5.916,0.186,7.205-2.391c1.326-2.648,0.257-5.879-2.389-7.207l-22.414-11.252
			c-5.615-2.818-14.205-2.455-19.524,0.826l-10.347,6.374c-1.725,1.061-4.123,1.177-5.075,1.177c-1.112,0-2.719-0.135-4.028-0.787
			l-15.38-7.635c-5.534-2.748-14.201-2.475-19.517,0.615l-11.628,6.732c-1.527,0.888-3.528,1.021-4.582,1.021
			c-1,0-2.899-0.122-4.368-0.936l-19.808-10.975c-2.527-1.402-5.915-0.402-7.299,2.096
			C48.439,174.956,49.378,178.229,51.969,179.661z"/>
		<path fill="#FFFFFF" d="M52.059,128.304l19.808,10.969c5.413,3.001,14.005,2.918,19.356-0.184l11.621-6.736
			c1.774-1.023,4.219-1.133,5.186-1.133c0.992,0,2.881,0.109,4.358,0.844l15.371,7.632c5.566,2.763,14.07,2.38,19.336-0.856
			l10.346-6.38c1.746-1.072,4.168-1.188,5.129-1.188c1.146,0,2.787,0.14,4.128,0.816l22.418,11.25
			c2.565,1.287,5.777,0.145,7.032-2.426c1.298-2.66,0.229-5.896-2.386-7.207l-22.421-11.253c-0.652-0.328-1.408-0.63-2.303-0.923
			c-4.288-1.398-9.439-1.319-13.895,0.289c-1.307,0.475-2.304,0.934-3.135,1.449l-10.35,6.38c-1.759,1.078-4.209,1.194-5.181,1.194
			c-1.146,0-2.781-0.138-4.116-0.802l-15.372-7.632c-5.481-2.724-14.067-2.451-19.339,0.61l-12.19,7.004
			c-1.173,0.506-2.614,0.768-4.121,0.768c-1.023,0-2.961-0.122-4.459-0.957l-19.806-10.965c-2.479-1.379-5.778-0.362-7.119,2.134
			C48.555,123.612,49.498,126.884,52.059,128.304z"/>
	</g>
</g>
</svg>
