<?xml version="1.0" encoding="utf-8"?>
<!-- Generator: Adobe Illustrator 16.0.4, SVG Export Plug-In . SVG Version: 6.00 Build 0)  -->
<!DOCTYPE svg PUBLIC "-//W3C//DTD SVG 1.1//EN" "http://www.w3.org/Graphics/SVG/1.1/DTD/svg11.dtd">
<svg version="1.1" id="Capa_1" xmlns="http://www.w3.org/2000/svg" xmlns:xlink="http://www.w3.org/1999/xlink" x="0px" y="0px"
	 width="533.334px" height="533.335px" viewBox="0 0 533.334 533.335" enable-background="new 0 0 533.334 533.335"
	 xml:space="preserve">
<rect x="-37.833" y="-9.833" fill="#646464" width="619" height="593"/>
<g>
	<path fill="#FFFFFF" d="M371.423,286.667c11,0,22.473-8.654,25.494-19.231l29.012-101.539c3.021-10.576-3.507-19.23-14.507-19.23
		H206.667c0-22.091-17.909-40-40-40h-60v40h60v170c0,16.568,13.432,30,30,30h190c11.045,0,20-8.954,20-20c0-11.045-8.955-20-20-20
		h-180v-20H371.423L371.423,286.667z M206.667,186.667h180.877l-17.145,60H206.667V186.667z M226.667,401.667
		c0,13.75-11.25,25-25,25h-10c-13.75,0-25-11.25-25-25v-10c0-13.75,11.25-25,25-25h10c13.75,0,25,11.25,25,25V401.667z
		 M406.667,401.667c0,13.75-11.25,25-25,25h-10.001c-13.749,0-24.999-11.25-24.999-25v-10c0-13.75,11.25-25,24.999-25h10.001
		c13.75,0,25,11.25,25,25V401.667z"/>
</g>
</svg>
