<?xml version="1.0" encoding="utf-8"?>
<!-- Generator: Adobe Illustrator 16.0.4, SVG Export Plug-In . SVG Version: 6.00 Build 0)  -->
<!DOCTYPE svg PUBLIC "-//W3C//DTD SVG 1.1//EN" "http://www.w3.org/Graphics/SVG/1.1/DTD/svg11.dtd">
<svg version="1.1" id="Capa_1" xmlns="http://www.w3.org/2000/svg" xmlns:xlink="http://www.w3.org/1999/xlink" x="0px" y="0px"
	 width="23.994px" height="23.994px" viewBox="0 0 23.994 23.994" enable-background="new 0 0 23.994 23.994" xml:space="preserve">
<rect x="-15.503" y="-12.503" fill="#646464" width="69.5" height="71.5"/>
<g>
	<path fill="#FFFFFF" d="M18.175,5.819c-0.719-0.66-1.619-1.02-2.641-1.02c-0.838,0-1.68,0.24-2.52,0.66
		c0.24,0.36,0.361,0.72,0.481,1.14c0.601-0.42,1.319-0.6,2.038-0.6c0.54,0,1.262,0.12,1.801,0.66c1.199,1.2,0.719,3.72-1.02,5.46
		c-1.08,1.08-2.4,1.681-3.66,1.681c-0.539,0-1.26-0.121-1.799-0.662c-0.6-0.6-0.78-1.618-0.6-2.639c-0.06,0-0.06,0-0.12,0
		c-0.36,0-0.78-0.06-1.08-0.18c-0.133,0.609-0.141,1.216-0.04,1.784c0.019,0.878-0.073,2.296-0.621,2.896l-0.631,0.632l-0.029-0.032
		c-0.18-0.18-0.479-0.18-0.66,0l-2.22,2.221c-0.12,0.18-0.06,0.659,0.3,1.02c0.36,0.359,0.84,0.42,0.959,0.299l2.22-2.219
		c0.18-0.181,0.18-0.48,0-0.661l0.66-0.659c0.565-0.564,1.863-0.686,2.746-0.684c0.273,0.055,0.559,0.084,0.854,0.084
		c1.5,0,3.18-0.721,4.5-2.04C19.435,10.739,19.855,7.499,18.175,5.819z M9.714,14.278c0.039-0.154,0.071-0.31,0.099-0.464
		c0.047,0.056,0.09,0.113,0.141,0.163c0.073,0.073,0.148,0.139,0.225,0.202C10.023,14.207,9.868,14.237,9.714,14.278z M11.035,6.359
		c-0.6-0.6-0.72-1.2-0.72-1.56c0.6,0,1.14,0.24,1.62,0.72c0.42,0.419,0.661,1.02,0.661,1.56C12.235,7.079,11.635,6.899,11.035,6.359
		z M8.514,8.938c-0.479-0.48-0.72-1.02-0.72-1.62c0.42,0,0.96,0.12,1.56,0.72c0.54,0.6,0.72,1.2,0.72,1.56
		C9.535,9.599,8.995,9.419,8.514,8.938z M9.714,7.679c-0.72-0.66-1.44-0.84-1.86-0.84c0.06-0.479,0.3-0.96,0.66-1.32
		c0.36-0.36,0.78-0.6,1.26-0.66c0.06,0.419,0.24,1.14,0.96,1.8c0.66,0.72,1.38,0.9,1.86,0.9c-0.061,0.48-0.3,0.96-0.66,1.32
		c-0.36,0.36-0.84,0.6-1.32,0.66C10.555,9.119,10.375,8.399,9.714,7.679z"/>
</g>
</svg>
