<?xml version="1.0" encoding="utf-8"?>
<!-- Generator: Adobe Illustrator 16.0.4, SVG Export Plug-In . SVG Version: 6.00 Build 0)  -->
<!DOCTYPE svg PUBLIC "-//W3C//DTD SVG 1.1//EN" "http://www.w3.org/Graphics/SVG/1.1/DTD/svg11.dtd">
<svg version="1.1" id="Capa_1" xmlns="http://www.w3.org/2000/svg" xmlns:xlink="http://www.w3.org/1999/xlink" x="0px" y="0px"
	 width="30.68px" height="30.68px" viewBox="0 0 30.68 30.68" enable-background="new 0 0 30.68 30.68" xml:space="preserve">
<rect x="-6.826" y="-5.493" fill="#646464" width="52.667" height="46.667"/>
<g>
	<g>
		<polygon fill="#FFFFFF" points="20.873,7.524 23.259,9.954 22.473,10.725 21.34,9.572 20.873,10.03 22.006,11.185 21.5,11.68 
			20.766,10.93 20.298,11.389 21.033,12.139 20.339,12.819 19.206,11.665 18.74,12.124 19.873,13.278 19.366,13.774 18.632,13.024 
			18.164,13.483 19.553,14.864 24.543,9.966 20.887,6.239 15.839,11.192 16.481,11.835 		"/>
		<polygon fill="#FFFFFF" points="13.789,17.537 14.645,18.408 14.003,19.036 12.751,17.76 12.284,18.219 13.536,19.494 
			13.031,19.99 12.177,19.119 11.709,19.579 12.564,20.449 11.87,21.131 10.618,19.855 10.15,20.313 11.403,21.589 10.897,22.086 
			10.042,21.214 9.575,21.672 10.43,22.543 9.806,23.156 7.42,20.725 12.74,15.505 12.097,14.864 6.136,20.712 9.794,24.44 
			15.758,18.612 14.257,17.078 		"/>
		<path fill="#FFFFFF" d="M13.555,9.774l0.005-0.005l-2.453-2.453L8.223,10.2l2.454,2.454l0.004-0.004l7.601,7.601l4.674,2.055
			l-1.752-4.861L13.555,9.774z M10.206,11.11L9.298,10.2l1.81-1.809l0.908,0.907L10.206,11.11z M21.145,21.102l-2.619-1.143
			l-0.346-0.348l1.547,0.093l-0.262-1.076L20.6,18.83l0.012-1.467l0.25,0.25l0.998,2.775L21.145,21.102z"/>
	</g>
</g>
</svg>
