<?xml version="1.0" encoding="utf-8"?>
<!-- Generator: Adobe Illustrator 16.0.4, SVG Export Plug-In . SVG Version: 6.00 Build 0)  -->
<!DOCTYPE svg PUBLIC "-//W3C//DTD SVG 1.1//EN" "http://www.w3.org/Graphics/SVG/1.1/DTD/svg11.dtd">
<svg version="1.1" id="Capa_1" xmlns="http://www.w3.org/2000/svg" xmlns:xlink="http://www.w3.org/1999/xlink" x="0px" y="0px"
	 width="517.008px" height="517.008px" viewBox="0 0 517.008 517.008" enable-background="new 0 0 517.008 517.008"
	 xml:space="preserve">
<rect x="-15.996" y="-14.996" fill="#646464" width="551" height="546"/>
<g>
	<path fill="#FFFFFF" d="M379.064,122.993c-23.828-13.752-56.674-14.332-85.706-1.509c-26.863,11.871-46.228,38.028-57.674,57.685
		c-5.152-1.256-10.667,1.193-13.059,6.179c-2.289,4.768-0.952,10.299,2.857,13.604c-1.044,2.324-1.681,3.884-1.922,4.492
		l-55.597,122.118c-5.605-2.584-12.284-0.282-15.05,5.289c-2.817,5.674-0.504,12.559,5.17,15.382l0.378,0.189l-12.507,27.488h-31.08
		c-6.334,0-11.475,5.142-11.475,11.476s5.141,11.475,11.475,11.475h57.375c6.334,0,11.475-5.141,11.475-11.475
		s-5.141-11.476-11.475-11.476h-1.079l7.958-17.481c1.05,0.304,2.111,0.51,3.173,0.51c4.217,0,8.279-2.335,10.288-6.368
		c2.628-5.29,0.757-11.585-4.097-14.705l57.611-126.54c1.555,0.717,3.178,1.073,4.791,1.073c4.274,0,8.376-2.398,10.351-6.512
		c2.627-5.468,0.493-11.952-4.706-14.9c9.817-16.542,25.533-37.42,46.101-46.509c22.112-9.771,47.61-9.622,64.954,0.39
		c12.755,7.361,20.082,19.072,21.791,34.815c3.201,29.485,0.487,49.256-8.043,58.775c-0.787,0.878-1.652,1.629-2.537,2.341v25.686
		c7.068-2.386,13.855-6.281,19.617-12.701c13.264-14.774,17.768-39.824,13.781-76.573
		C409.738,152.438,397.964,133.895,379.064,122.993z"/>
	<path fill="#FFFFFF" d="M346.385,316.536c7.487,0,14.567,1.704,20.941,4.676v-54.053v-23.282v-13.403
		c0-6.339,0.603-5.737-5.737-5.737h-22.474c-6.34,0-70.284,5.262-87.175,88.759l-10.838,69.021c0,6.339,5.135,14.343,11.475,14.343
		h54.455c-6.553-8.438-10.494-18.997-10.494-30.478C296.537,338.895,318.902,316.536,346.385,316.536z"/>
	<path fill="#FFFFFF" d="M373.064,338.866c-1.762-1.704-3.679-3.241-5.737-4.59c-6.03-3.947-13.22-6.265-20.942-6.265
		c-21.16,0-38.372,17.213-38.372,38.372c0,12.427,5.967,23.466,15.159,30.478c3.201,2.443,6.787,4.389,10.66,5.737
		c3.941,1.371,8.153,2.151,12.554,2.151c4.401,0,8.612-0.78,12.554-2.151c4.062-1.412,7.82-3.483,11.137-6.093
		c3.121-2.456,5.87-5.365,8.102-8.658c4.154-6.134,6.587-13.523,6.587-21.47c0-7.517-2.203-14.511-5.949-20.431
		C377.166,343.363,375.25,340.984,373.064,338.866z M346.385,347.135c10.625,0,19.244,8.617,19.244,19.243
		s-8.619,19.243-19.244,19.243c-10.627,0-19.243-8.617-19.243-19.243S335.753,347.135,346.385,347.135z"/>
</g>
</svg>
