<?xml version="1.0" encoding="utf-8"?>
<!-- Generator: Adobe Illustrator 16.0.4, SVG Export Plug-In . SVG Version: 6.00 Build 0)  -->
<!DOCTYPE svg PUBLIC "-//W3C//DTD SVG 1.1//EN" "http://www.w3.org/Graphics/SVG/1.1/DTD/svg11.dtd">
<svg version="1.1" id="Capa_1" xmlns="http://www.w3.org/2000/svg" xmlns:xlink="http://www.w3.org/1999/xlink" x="0px" y="0px"
	 width="500px" height="500px" viewBox="0 0 500 500" enable-background="new 0 0 500 500" xml:space="preserve">
<rect x="-26.5" y="-6.5" fill="#646464" width="542" height="511"/>
<g>
	<g>
		<path fill="#FFFFFF" d="M339.84,327.33l5.292-5.293c-20.548-17.862-46.918-47.498-69.558-69.47
			c2.794-5.583,1.107-12.496-4.23-16.047c-24.417-16.221-33.662-27.864-44.362-41.351c-4.793-6.042-9.756-12.291-16.334-19.426
			c-0.604-0.658-1.263-1.229-1.959-1.723c-2.536-2.356-5.357-4.354-8.269-5.76c0,0-3.122-1.712-6.676-2.392
			c-3.401-0.647-7.35-0.672-7.35-0.672H186.3c-0.384,0.011-0.778,0.083-1.159,0.106c-0.285,0.012-0.561-0.023-0.846,0
			c-0.466,0.05-0.938,0.148-1.404,0.214c-0.497,0.062-0.979,0.127-1.476,0.215c-24.479,3.84-50.243,22.933-78.652,58.348
			c-4.339,5.409-3.473,13.309,1.936,17.646c2.317,1.857,5.093,2.76,7.85,2.76c3.674,0,7.316-1.606,9.796-4.697
			c12.203-15.208,22.89-25.868,32.15-33.349l-10.308,48.104c-1.478,6.917,0.454,13.293,4.299,18.479l-3.246,49.521l-20.639,53.345
			c-3.179,8.228,0.914,17.487,9.137,20.663c1.897,0.73,3.848,1.08,5.765,1.08c6.405,0,12.452-3.881,14.903-10.215l21.515-55.633
			c0.583-1.512,0.934-3.101,1.042-4.712l1.89-28.823l18.984,29.99l15.72,57.533c1.904,7.139,8.365,11.859,15.425,11.859
			c1.362,0,2.746-0.172,4.124-0.547c8.523-2.266,13.591-11.016,11.322-19.546l-16.348-59.889c-0.413-1.564-1.07-3.06-1.936-4.424
			l-25.882-40.89c0.826-1.646,1.524-3.393,1.946-5.363l10.583-49.386c9.908,12.142,21.305,24.324,44.673,39.841
			c2.136,1.42,4.545,2.102,6.935,2.102c2.427,0,4.788-0.782,6.852-2.141C292.189,277.717,318.532,308.77,339.84,327.33z"/>
		<circle fill="#FFFFFF" cx="208.18" cy="134.699" r="32.331"/>
		<path fill="#FFFFFF" d="M306.776,331.04l-11.169-8.972c-2.525-2.027-6.217-1.628-8.247,0.898
			c-2.029,2.527-1.626,6.219,0.899,8.248l11.397,9.155v24.89c0,0.137,0.018,0.27,0.04,0.4l-10.034,19.282
			c-1.496,2.874-0.378,6.417,2.496,7.911c0.865,0.451,1.79,0.664,2.704,0.664c2.117,0,4.162-1.15,5.208-3.158l10.095-19.399
			l11.297,19.618c1.086,1.885,3.059,2.939,5.09,2.939c0.993,0,2-0.252,2.922-0.783c2.807-1.617,3.773-5.203,2.156-8.012
			l-9.857-17.117h36.506v20.045c0,3.238,2.628,5.865,5.867,5.865s5.867-2.627,5.867-5.865v-21.968
			c0.023-0.138,0.041-0.278,0.041-0.424v-18.552l-27.324-15.668L306.776,331.04L306.776,331.04z"/>
		<path fill="#FFFFFF" d="M385.238,319.115c-3.627-3.416-4.843-7.414-8.914-10.312c-0.709-0.504-1.426-1.016-2.184-1.443
			c-0.453-0.256-0.6-0.551-0.548-1.045c0.173-1.681,0.344-3.364,0.479-5.049c0.239-3.018-0.63-5.764-3.053-7.543
			c-0.974-0.715-5.772-3.039-7.862,4.914c-0.456,1.73-1.07,3.451-1.893,5.029c-3.02,5.799-6.849,11.096-10.516,16.492
			c-1.674,2.462-3.344,4.92-5.012,7.375l25.654,14.61c0,0,4.945-5.407,5.639-5.104c0.965,0.425,1.934,0.843,2.897,1.262
			c2.825,1.228,5.771,1.798,8.856,1.616c5.245-0.305,10.705-3.09,11.205-9.377C400.449,324.771,386.463,320.27,385.238,319.115z"/>
	</g>
</g>
</svg>
