<?xml version="1.0" encoding="utf-8"?>
<!-- Generator: Adobe Illustrator 16.0.4, SVG Export Plug-In . SVG Version: 6.00 Build 0)  -->
<!DOCTYPE svg PUBLIC "-//W3C//DTD SVG 1.1//EN" "http://www.w3.org/Graphics/SVG/1.1/DTD/svg11.dtd">
<svg version="1.1" id="Capa_1" xmlns="http://www.w3.org/2000/svg" xmlns:xlink="http://www.w3.org/1999/xlink" x="0px" y="0px"
	 width="545.062px" height="545.062px" viewBox="0 0 545.062 545.062" enable-background="new 0 0 545.062 545.062"
	 xml:space="preserve">
<rect x="-17.969" y="-7.969" fill="#646464" width="576" height="566"/>
<g>
	<path fill="#FFFFFF" d="M401.625,172.125c6.1,0,11.734,1.945,16.387,5.204l-10.579-47.61
		c-2.468-12.806-11.631-20.707-23.915-20.707H166.565c-10.987,0-20.523,8.509-23.197,20.695l-9.84,44.287
		c3.104-1.153,6.415-1.87,9.909-1.87L401.625,172.125L401.625,172.125z M367.918,124.074c9.111,0,16.494,7.384,16.494,16.495
		c0,9.111-7.383,16.496-16.494,16.496s-16.496-7.384-16.496-16.496C351.422,131.458,358.807,124.074,367.918,124.074z
		 M316.279,124.074c9.111,0,16.496,7.384,16.496,16.495c0,9.111-7.385,16.496-16.496,16.496s-16.494-7.384-16.494-16.496
		C299.785,131.458,307.168,124.074,316.279,124.074z M252.45,126.225h28.687V137.7H252.45V126.225z M252.45,149.175h28.687v11.475
		H252.45V149.175z"/>
	<path fill="#FFFFFF" d="M143.438,436.05h258.187c9.49,0,17.213-7.723,17.213-17.213V200.812c0-2.284-0.471-4.458-1.279-6.455
		c-0.213-0.528-0.505-1.015-0.77-1.515c-0.654-1.239-1.434-2.381-2.357-3.419c-0.521-0.591-1.09-1.131-1.688-1.641
		c-0.172,1.285-0.425,2.553-0.729,3.809c-0.637,2.628-1.561,5.164-2.76,7.511c-0.264,0.522-0.527,1.044-0.82,1.543
		c-3.977,6.799-10.432,11.641-19.158,11.641H167.26c-7.458,0-14.981-3.884-20.575-9.616c-0.413-0.425-0.81-0.861-1.205-1.308
		c-2.404-2.72-4.36-5.795-5.714-9.031c-1.05-2.501-1.727-5.095-1.95-7.711c-1.383,0.481-2.708,1.072-3.901,1.87
		c-1.039,0.694-1.979,1.503-2.846,2.398c-0.482,0.499-0.901,1.05-1.319,1.601c-2.18,2.886-3.523,6.438-3.523,10.322v218.025
		C126.226,428.327,133.948,436.05,143.438,436.05z M273.49,236.672c49.038,0,88.931,39.893,88.931,88.932
		c0,49.038-39.892,88.932-88.931,88.932c-49.039,0-88.931-39.894-88.931-88.932C184.559,276.564,224.451,236.672,273.49,236.672z"/>
	<path fill="#FFFFFF" d="M167.26,200.812h220.022h1.997c1.084,0,2.082-0.178,3.017-0.494c6.134-2.06,9.038-10.27,9.278-16.719
		H149.29C149.916,191.827,159.096,200.812,167.26,200.812z"/>
	<path fill="#FFFFFF" d="M273.49,397.322c39.549,0,71.719-32.17,71.719-71.719s-32.17-71.719-71.719-71.719
		c-39.549,0-71.719,32.17-71.719,71.719S233.941,397.322,273.49,397.322z M308.15,287.713c4.818,0,8.727,3.906,8.727,8.727
		c0,4.819-3.908,8.727-8.727,8.727c-4.82,0-8.727-3.907-8.727-8.727C299.43,291.619,303.33,287.713,308.15,287.713z M279.463,270.5
		c4.818,0,8.727,3.907,8.727,8.727s-3.908,8.727-8.727,8.727c-4.82,0-8.727-3.907-8.727-8.727
		C270.742,274.407,274.643,270.5,279.463,270.5z M220.71,317.416c5.996-4.453,17.252-10.925,32.079-10.781
		c10.867,0.104,16.243,3.981,21.688,8.01c-0.068-0.505-0.154-1.004-0.154-1.526c0-6.306,5.112-11.417,11.417-11.417
		c6.306,0,11.417,5.111,11.417,11.417c0,4.206-2.295,7.838-5.68,9.817c2.278,0.436,4.796,0.717,7.699,0.768
		c15.406,0.27,22.365-7.631,25.452-13.718c1.509,4.946,2.335,10.185,2.335,15.624c0,29.53-23.938,53.467-53.467,53.467
		c-29.531,0-53.468-23.938-53.468-53.467C220.016,322.809,220.297,320.09,220.71,317.416z"/>
</g>
</svg>
