<?xml version="1.0" encoding="utf-8"?>
<!-- Generator: Adobe Illustrator 16.0.4, SVG Export Plug-In . SVG Version: 6.00 Build 0)  -->
<!DOCTYPE svg PUBLIC "-//W3C//DTD SVG 1.1//EN" "http://www.w3.org/Graphics/SVG/1.1/DTD/svg11.dtd">
<svg version="1.1" id="Capa_1" xmlns="http://www.w3.org/2000/svg" xmlns:xlink="http://www.w3.org/1999/xlink" x="0px" y="0px"
	 width="874.1px" height="874.1px" viewBox="0 0 874.1 874.1" enable-background="new 0 0 874.1 874.1" xml:space="preserve">
<rect x="-72.45" y="-48.45" fill="#646464" width="996" height="942"/>
<g>
	<g>
		<path fill="#FFFFFF" d="M204.82,354.85c-16.56,0-30,13.44-30,30v104.399c0,16.561,13.44,30,30,30s30-13.439,30-30V384.85
			C234.82,368.29,221.38,354.85,204.82,354.85z"/>
		<path fill="#FFFFFF" d="M588.88,321.55c-16.561,0-30,13.44-30,30v61.5h-243.6v-61.5c0-16.56-13.44-30-30-30s-30,13.44-30,30v171
			c0,16.561,13.44,30,30,30s30-13.439,30-30v-61.5h243.6v61.5c0,16.561,13.439,30,30,30s30-13.439,30-30v-171
			C618.88,334.99,605.439,321.55,588.88,321.55z"/>
		<path fill="#FFFFFF" d="M669.279,354.85c-16.56,0-30,13.44-30,30v104.399c0,16.561,13.44,30,30,30c16.561,0,30-13.439,30-30
			V384.85C699.279,368.29,685.839,354.85,669.279,354.85z"/>
	</g>
</g>
</svg>
