<?xml version="1.0" encoding="utf-8"?>
<!-- Generator: Adobe Illustrator 16.0.4, SVG Export Plug-In . SVG Version: 6.00 Build 0)  -->
<!DOCTYPE svg PUBLIC "-//W3C//DTD SVG 1.1//EN" "http://www.w3.org/Graphics/SVG/1.1/DTD/svg11.dtd">
<svg version="1.1" id="Capa_1" xmlns="http://www.w3.org/2000/svg" xmlns:xlink="http://www.w3.org/1999/xlink" x="0px" y="0px"
	 width="419.139px" height="419.139px" viewBox="0 0 419.139 419.139" enable-background="new 0 0 419.139 419.139"
	 xml:space="preserve">
<rect x="-44.931" y="-23.931" fill="#646464" width="516" height="453"/>
<g>
	<g>
		<path fill="#FFFFFF" d="M120.854,221.749c-3.122,15.674,6.865,31.038,22.521,34.416c15.819,3.436,31.471-6.643,34.888-22.463
			l4.815-44.158c-15.819-8.584-10.022,26.996-37.346,21.1C126.965,206.581,121.85,218.589,120.854,221.749z"/>
		<path fill="#FFFFFF" d="M324.003,274.773c-1.236-3.71-5.26-5.759-8.961-4.495l-19.707,6.552l-12.393-37.274
			c10.179-4.996,18.522-12.951,23.691-23.273c6.248-12.47,7.263-26.627,2.64-40.443l-32.376-74.835l-86.092,28.645l5.75,23.401
			l-73.579-15.907l-24.263,78.492c-2.946,13.637-0.409,27.602,7.151,39.322c6.248,9.699,15.404,16.703,26.062,20.562l-8.305,38.395
			l-20.268-4.373c-3.812-0.768-7.597,1.604-8.424,5.437c-0.828,3.829,1.602,7.595,5.434,8.425l27.133,5.861
			c0.02,0,0.03,0.018,0.043,0.018c0.031,0.01,0.067,0,0.098,0.01l27.141,5.862c0.508,0.11,1.006,0.158,1.506,0.158
			c3.265,0,6.202-2.27,6.919-5.593c0.822-3.832-1.605-7.596-5.437-8.428l-20.282-4.385l8.275-38.238
			c1.358,0.111,2.714,0.223,4.074,0.223c24.362,0,45.793-17.314,51.042-41.736l5.752-43.121l3.777,15.358
			c7.105,21.375,27.007,35.737,49.513,35.737c3.231,0,6.431-0.389,9.6-0.988l12.359,37.168l-19.668,6.537
			c-3.721,1.234-5.733,5.25-4.497,8.959c0.99,2.973,3.758,4.857,6.729,4.857c0.738,0,1.498-0.112,2.236-0.363l52.826-17.562
			C323.228,282.499,325.241,278.482,324.003,274.773z M186.926,234.726c-4.316,20.037-24.966,33.486-45.204,29.109l0,0h-0.011
			c-9.932-2.141-18.431-8.019-23.933-16.557c-5.5-8.537-7.355-18.709-5.363-28.049l20.266-65.482l63.197,13.663L186.926,234.726z
			 M224.021,205.464l-16.327-66.493l61.359-20.413l26.987,62.333c3.211,9.645,2.461,19.958-2.077,29.04
			c-4.552,9.082-12.366,15.852-22.015,19.054c-3.9,1.312-7.953,1.966-12.025,1.966C243.53,230.952,229.042,220.493,224.021,205.464z
			"/>
		<path fill="#FFFFFF" d="M288.165,184.892c-1.365-3.028-7.716-14.422-25.936-8.368c-26.546,8.829-24.626-27.174-39.408-16.935
			l9.541,43.364c5.113,15.349,21.765,23.696,37.102,18.585C284.676,216.476,292.946,200.122,288.165,184.892z"/>
		<path fill="#FFFFFF" d="M166.02,99.856c4.414-0.239,7.81-4.019,7.572-8.439c-0.238-4.427-4.024-7.817-8.438-7.578
			c-4.432,0.24-7.827,4.019-7.587,8.444C157.81,96.706,161.594,100.096,166.02,99.856z"/>
		<path fill="#FFFFFF" d="M197.015,113.862c4.411-0.239,7.81-4.019,7.57-8.444c-0.241-4.421-4.026-7.813-8.438-7.574
			c-4.43,0.241-7.826,4.019-7.587,8.439C188.799,110.709,192.583,114.102,197.015,113.862z"/>
		<path fill="#FFFFFF" d="M161.555,120.595c0.239,4.426,4.023,7.818,8.437,7.577c4.432-0.239,7.828-4.019,7.589-8.443
			c-0.241-4.421-4.027-7.812-8.458-7.573C164.711,112.395,161.317,116.174,161.555,120.595z"/>
	</g>
</g>
</svg>
